<svg version="1.1" id="Layer_1" xmlns="http://www.w3.org/2000/svg" xmlns:xlink="http://www.w3.org/1999/xlink" x="0px" y="0px"
	 width="100%" viewBox="0 0 500 500" enable-background="new 0 0 500 500" xml:space="preserve">
<path fill="#FFFFFF" opacity="0.000000" stroke="none" 
	d="
M501.000000,178.000000 
	C501.000000,285.999969 501.000000,393.499939 501.000000,500.999939 
	C334.333405,500.999939 167.666794,500.999939 1.000147,500.999969 
	C1.000098,334.333435 1.000098,167.666870 1.000049,1.000237 
	C167.666519,1.000158 334.333038,1.000158 500.999786,1.000079 
	C501.000000,59.833332 501.000000,118.666664 501.000000,178.000000 
M271.129700,99.720146 
	C276.024628,111.488823 286.373596,118.376732 296.790710,116.799179 
	C312.903595,114.359062 321.881317,99.744339 316.896149,83.300041 
	C315.859009,81.423470 314.994110,79.423859 313.756134,77.690750 
	C306.900177,68.092743 293.643616,65.372665 282.615265,71.125290 
	C273.772034,75.738121 267.092682,87.809555 271.129700,99.720146 
M127.004120,399.952850 
	C134.340042,405.958801 141.675964,411.964752 149.430496,418.504395 
	C167.875198,430.364197 188.034088,436.327271 210.914841,436.235931 
	C227.802063,436.232788 243.959045,432.731018 259.139160,425.390961 
	C276.426208,417.032166 293.625214,416.504181 311.597839,425.160645 
	C316.087891,428.288940 320.668243,431.296295 325.050842,434.568542 
	C337.291992,443.708374 351.075226,449.702454 366.131683,450.808197 
	C398.675903,453.198090 425.771790,442.461578 445.388245,415.225922 
	C454.544891,402.512695 460.016083,388.634827 461.576263,372.336578 
	C461.106476,364.876099 460.636658,357.415619 460.192474,349.138123 
	C456.808044,335.168701 452.083557,321.829224 441.929291,310.289032 
	C436.014313,302.639557 428.881104,296.415497 419.906982,291.282227 
	C412.791687,288.213165 405.869659,284.514954 398.506348,282.253174 
	C391.241974,280.021851 384.509369,277.351013 378.770477,271.357056 
	C371.923279,263.878693 370.715240,254.518463 370.074829,244.100815 
	C369.594940,231.891479 367.434723,220.059952 362.091003,208.185913 
	C356.785706,199.098495 351.480408,190.011063 345.886536,180.307159 
	C339.275146,173.827866 332.663727,167.348572 325.705963,160.306396 
	C313.502625,149.939468 298.380127,145.177597 283.764771,138.153030 
	C282.350037,137.014893 280.928925,135.884521 279.521576,134.737305 
	C271.122284,127.890472 265.433411,119.183899 261.865967,108.230423 
	C259.883484,100.489006 257.901031,92.747589 255.726730,84.312019 
	C250.472229,74.213036 245.217728,64.114052 239.723434,53.388100 
	C234.827988,48.238964 229.932541,43.089828 224.731018,37.345459 
	C214.878906,28.025038 204.195816,20.014366 190.567139,15.401570 
	C171.065247,7.330906 150.856445,5.031388 130.090012,8.522588 
	C109.172653,12.039161 90.387482,20.499264 74.363876,34.488560 
	C64.443756,43.149246 55.464905,52.719574 49.376255,65.384171 
	C42.992729,76.820457 38.202579,88.801048 36.368191,102.569824 
	C35.954220,109.383293 35.540245,116.196770 35.060604,123.894249 
	C35.814682,135.611160 36.923805,147.257065 41.964565,158.866516 
	C45.231991,165.595963 48.499420,172.325394 51.947002,179.748627 
	C58.892010,191.287231 67.175919,201.616898 78.862740,209.795319 
	C88.759880,217.356827 99.355545,224.219971 105.112877,236.725525 
	C108.777534,244.757568 110.184891,253.234131 109.962715,262.803741 
	C107.887520,269.757507 105.777016,276.700989 103.749924,283.668762 
	C102.461845,288.096313 101.297714,292.559967 99.835304,297.757172 
	C96.614708,309.727264 96.142761,321.867493 97.681442,335.006500 
	C98.641479,346.936615 101.289474,358.406189 107.045113,369.763855 
	C111.957954,380.735199 118.224083,390.803375 127.004120,399.952850 
M289.831726,495.855011 
	C295.782379,494.238831 300.842743,491.437836 304.360138,486.067444 
	C309.846436,477.690979 309.335907,466.386322 302.846741,458.602417 
	C296.294098,450.742371 284.564209,448.229187 275.113617,452.660553 
	C266.609314,456.648193 261.221222,467.343262 262.516815,476.717621 
	C263.892426,486.670715 273.521179,498.053345 289.831726,495.855011 
M413.602905,201.591827 
	C413.741516,199.614960 414.186035,197.602615 413.961639,195.667862 
	C413.278412,189.777267 410.453583,185.354172 404.545837,183.426895 
	C398.567261,181.476471 392.609589,183.099899 388.680725,187.680435 
	C384.721893,192.295883 384.034271,197.965225 386.714172,203.460449 
	C389.185028,208.527100 393.368988,211.732773 398.805420,211.707443 
	C405.244354,211.677460 410.783905,209.052368 413.602905,201.591827 
z"/>
<path fill="#F86F81" opacity="1.000000" stroke="none" 
	d="
M442.220673,310.905060 
	C452.083557,321.829224 456.808044,335.168701 459.768799,349.565796 
	C454.141479,351.642609 448.918671,353.233948 443.737610,354.951141 
	C424.265656,361.404694 404.767090,367.781555 385.354126,374.408661 
	C361.646698,382.501801 338.052948,390.927979 314.342194,399.011230 
	C281.048187,410.361511 247.683640,421.504852 214.386093,432.844940 
	C212.740921,433.405243 211.447220,434.997559 209.989838,436.109314 
	C188.034088,436.327271 167.875198,430.364197 149.277634,417.885193 
	C150.480560,416.450256 151.746384,415.383270 153.207016,414.860382 
	C161.601028,411.855347 170.056763,409.022552 178.445404,406.003082 
	C179.458679,405.638336 180.193939,404.501190 181.471039,403.761658 
	C185.442245,404.535065 189.003860,405.903229 192.558121,405.884338 
	C203.482910,405.826202 214.472336,405.857391 225.308884,404.679016 
	C236.045395,403.511475 245.691147,399.017792 253.379074,391.036438 
	C258.791290,385.417572 260.992737,378.280548 263.262146,370.985596 
	C284.564667,364.001038 305.493347,357.091431 326.365753,350.015778 
	C353.533936,340.805908 380.642792,331.421234 407.807068,322.199768 
	C419.238953,318.319031 430.747162,314.663147 442.220673,310.905060 
z"/>
<path fill="#F9B0BD" opacity="1.000000" stroke="none" 
	d="
M41.907990,158.127884 
	C36.923805,147.257065 35.814682,135.611160 35.438679,123.404510 
	C46.307438,118.961266 56.701973,114.726059 67.306656,111.106575 
	C100.410355,99.807899 133.610901,88.793343 166.739655,77.567566 
	C188.256973,70.276352 209.697067,62.757133 231.220383,55.483948 
	C233.984482,54.549896 237.041763,54.483444 239.963226,54.015076 
	C245.217728,64.114052 250.472229,74.213036 255.426605,84.657883 
	C254.147263,85.145157 253.120193,85.142502 252.195969,85.449486 
	C237.100708,90.463226 221.997131,95.453453 206.938309,100.575073 
	C185.142059,107.988136 163.390259,115.531822 141.601471,122.966949 
	C110.232155,133.671295 78.839813,144.308304 47.484222,155.052582 
	C45.506439,155.730301 43.761337,157.087051 41.907990,158.127884 
z"/>
<path fill="#F9A5B3" opacity="1.000000" stroke="none" 
	d="
M78.522507,209.181183 
	C67.175919,201.616898 58.892010,191.287231 52.265034,179.380493 
	C63.568974,175.338120 74.561928,171.684799 85.539436,167.985672 
	C115.084244,158.029831 144.636047,148.094421 174.159241,138.074814 
	C200.218430,129.230804 226.233551,120.256905 252.294739,111.418831 
	C255.405655,110.363838 258.683716,109.801712 261.884277,109.011124 
	C265.433411,119.183899 271.122284,127.890472 279.521576,134.737305 
	C280.928925,135.884521 282.350037,137.014893 283.754089,138.737976 
	C280.100647,140.742676 276.388214,142.013321 272.854340,143.665848 
	C271.673767,144.217926 270.949738,145.746201 269.629822,146.753967 
	C261.026581,145.812195 252.808350,144.215378 244.595032,144.240280 
	C230.691147,144.282455 216.734528,144.788254 202.906204,146.165161 
	C192.084351,147.242706 181.857635,150.847336 174.140945,159.338821 
	C168.792786,165.223999 167.259323,172.742645 164.730042,180.015991 
	C162.846268,180.197525 161.303284,180.148621 159.931168,180.608994 
	C135.921738,188.664536 111.920395,196.744797 87.955330,204.931046 
	C84.706238,206.040894 81.661743,207.749710 78.522507,209.181183 
z"/>
<path fill="#F86477" opacity="1.000000" stroke="none" 
	d="
M461.132690,373.026276 
	C460.016083,388.634827 454.544891,402.512695 445.388245,415.225922 
	C425.771790,442.461578 398.675903,453.198090 366.131683,450.808197 
	C351.075226,449.702454 337.291992,443.708374 325.050842,434.568542 
	C320.668243,431.296295 316.087891,428.288940 311.380646,424.626434 
	C312.567932,423.317383 313.896027,422.322113 315.389679,421.804413 
	C323.536926,418.980316 331.743713,416.328186 339.894958,413.515259 
	C355.431915,408.153534 370.922455,402.656586 386.474213,397.338562 
	C404.846558,391.056030 423.240662,384.834991 441.673126,378.731812 
	C448.086273,376.608337 454.642059,374.915649 461.132690,373.026276 
z"/>
<path fill="#F9ABB9" opacity="1.000000" stroke="none" 
	d="
M261.875122,108.620773 
	C258.683716,109.801712 255.405655,110.363838 252.294739,111.418831 
	C226.233551,120.256905 200.218430,129.230804 174.159241,138.074814 
	C144.636047,148.094421 115.084244,158.029831 85.539436,167.985672 
	C74.561928,171.684799 63.568974,175.338120 52.174957,179.033600 
	C48.499420,172.325394 45.231991,165.595963 41.936279,158.497192 
	C43.761337,157.087051 45.506439,155.730301 47.484222,155.052582 
	C78.839813,144.308304 110.232155,133.671295 141.601471,122.966949 
	C163.390259,115.531822 185.142059,107.988136 206.938309,100.575073 
	C221.997131,95.453453 237.100708,90.463226 252.195969,85.449486 
	C253.120193,85.142502 254.147263,85.145157 255.522522,85.004959 
	C257.901031,92.747589 259.883484,100.489006 261.875122,108.620773 
z"/>
<path fill="#F9BAC7" opacity="1.000000" stroke="none" 
	d="
M36.879837,101.966110 
	C38.202579,88.801048 42.992729,76.820457 50.056885,65.185303 
	C52.823532,64.491814 54.964027,64.158669 56.986740,63.476372 
	C70.196533,59.020428 83.379440,54.484818 96.573723,49.982815 
	C126.736679,39.690948 156.909149,29.426758 187.041107,19.044952 
	C188.541077,18.528145 189.694229,17.004795 191.008865,15.950124 
	C204.195816,20.014366 214.878906,28.025038 224.671143,37.935669 
	C222.624313,39.338612 220.674561,40.261421 218.644775,40.947468 
	C190.881927,50.330994 163.079010,59.596802 135.344620,69.063423 
	C104.596016,79.558868 73.913452,90.247696 43.179230,100.785522 
	C41.179581,101.471138 38.984180,101.585838 36.879837,101.966110 
z"/>
<path fill="#F87D8E" opacity="1.000000" stroke="none" 
	d="
M379.035889,271.985016 
	C384.509369,277.351013 391.241974,280.021851 398.506348,282.253174 
	C405.869659,284.514954 412.791687,288.213165 419.708313,291.613159 
	C412.142059,294.405792 404.766174,296.843140 397.408295,299.333679 
	C374.492035,307.090393 351.582520,314.867035 328.670563,322.636414 
	C310.639893,328.750519 292.563599,334.735199 274.610901,341.070221 
	C270.073700,342.671265 265.931458,345.391510 261.416077,347.251587 
	C257.130371,336.981201 253.036270,327.056671 249.151321,316.829773 
	C253.849869,314.876617 258.303406,313.119415 262.834869,311.593475 
	C282.916870,304.830841 303.050232,298.219788 323.109070,291.389648 
	C341.788116,285.029388 360.396423,278.461517 379.035889,271.985016 
z"/>
<path fill="#F88A9A" opacity="1.000000" stroke="none" 
	d="
M362.166046,208.927383 
	C367.434723,220.059952 369.594940,231.891479 369.623230,244.551529 
	C367.245331,245.447235 365.264191,245.730743 363.401428,246.362900 
	C349.280090,251.155197 335.197388,256.061462 321.073242,260.845337 
	C293.449799,270.201385 265.797729,279.472992 238.193405,288.884796 
	C236.282776,289.536255 234.668900,291.057983 232.633606,291.979736 
	C229.150040,285.980255 225.497711,280.372131 222.872116,274.318665 
	C220.036469,267.780884 222.437927,263.574493 229.385513,262.262543 
	C234.081528,261.375732 238.945755,261.359833 243.738953,261.012207 
	C251.178040,260.472717 258.749390,260.676147 266.034607,259.324524 
	C280.488007,256.642975 286.225311,248.801514 286.162964,234.024109 
	C293.355927,231.842941 300.169006,229.753876 306.926239,227.497650 
	C325.352112,221.345306 343.754425,215.122360 362.166046,208.927383 
z"/>
<path fill="#F87688" opacity="1.000000" stroke="none" 
	d="
M261.607727,347.597473 
	C265.931458,345.391510 270.073700,342.671265 274.610901,341.070221 
	C292.563599,334.735199 310.639893,328.750519 328.670563,322.636414 
	C351.582520,314.867035 374.492035,307.090393 397.408295,299.333679 
	C404.766174,296.843140 412.142059,294.405792 419.925140,291.891052 
	C428.881104,296.415497 436.014313,302.639557 442.074982,310.597046 
	C430.747162,314.663147 419.238953,318.319031 407.807068,322.199768 
	C380.642792,331.421234 353.533936,340.805908 326.365753,350.015778 
	C305.493347,357.091431 284.564667,364.001038 263.242615,370.519501 
	C262.418701,362.568817 262.013214,355.083160 261.607727,347.597473 
z"/>
<path fill="#F86A7D" opacity="1.000000" stroke="none" 
	d="
M461.354492,372.681427 
	C454.642059,374.915649 448.086273,376.608337 441.673126,378.731812 
	C423.240662,384.834991 404.846558,391.056030 386.474213,397.338562 
	C370.922455,402.656586 355.431915,408.153534 339.894958,413.515259 
	C331.743713,416.328186 323.536926,418.980316 315.389679,421.804413 
	C313.896027,422.322113 312.567932,423.317383 311.093262,424.426575 
	C293.625214,416.504181 276.426208,417.032166 259.139160,425.390961 
	C243.959045,432.731018 227.802063,436.232788 210.452332,436.172607 
	C211.447220,434.997559 212.740921,433.405243 214.386093,432.844940 
	C247.683640,421.504852 281.048187,410.361511 314.342194,399.011230 
	C338.052948,390.927979 361.646698,382.501801 385.354126,374.408661 
	C404.767090,367.781555 424.265656,361.404694 443.737610,354.951141 
	C448.918671,353.233948 454.141479,351.642609 459.755981,349.974304 
	C460.636658,357.415619 461.106476,364.876099 461.354492,372.681427 
z"/>
<path fill="#F88394" opacity="1.000000" stroke="none" 
	d="
M232.917007,292.174988 
	C234.668900,291.057983 236.282776,289.536255 238.193405,288.884796 
	C265.797729,279.472992 293.449799,270.201385 321.073242,260.845337 
	C335.197388,256.061462 349.280090,251.155197 363.401428,246.362900 
	C365.264191,245.730743 367.245331,245.447235 369.573547,245.002106 
	C370.715240,254.518463 371.923279,263.878693 378.903198,271.671021 
	C360.396423,278.461517 341.788116,285.029388 323.109070,291.389648 
	C303.050232,298.219788 282.916870,304.830841 262.834869,311.593475 
	C258.303406,313.119415 253.849869,314.876617 248.878906,316.620850 
	C243.237213,308.534576 238.077118,300.354767 232.917007,292.174988 
z"/>
<path fill="#F9B7C4" opacity="1.000000" stroke="none" 
	d="
M36.624016,102.267967 
	C38.984180,101.585838 41.179581,101.471138 43.179230,100.785522 
	C73.913452,90.247696 104.596016,79.558868 135.344620,69.063423 
	C163.079010,59.596802 190.881927,50.330994 218.644775,40.947468 
	C220.674561,40.261421 222.624313,39.338612 224.824188,38.233288 
	C229.932541,43.089828 234.827988,48.238964 239.843323,53.701588 
	C237.041763,54.483444 233.984482,54.549896 231.220383,55.483948 
	C209.697067,62.757133 188.256973,70.276352 166.739655,77.567566 
	C133.610901,88.793343 100.410355,99.807899 67.306656,111.106575 
	C56.701973,114.726059 46.307438,118.961266 35.471512,122.962509 
	C35.540245,116.196770 35.954220,109.383293 36.624016,102.267967 
z"/>
<path fill="#F9C1CD" opacity="1.000000" stroke="none" 
	d="
M190.787994,15.675848 
	C189.694229,17.004795 188.541077,18.528145 187.041107,19.044952 
	C156.909149,29.426758 126.736679,39.690948 96.573723,49.982815 
	C83.379440,54.484818 70.196533,59.020428 56.986740,63.476372 
	C54.964027,64.158669 52.823532,64.491814 50.324310,64.972290 
	C55.464905,52.719574 64.443756,43.149246 74.363876,34.488560 
	C90.387482,20.499264 109.172653,12.039161 130.090012,8.522588 
	C150.856445,5.031388 171.065247,7.330906 190.787994,15.675848 
z"/>
<path fill="#F99DAC" opacity="1.000000" stroke="none" 
	d="
M78.692627,209.488251 
	C81.661743,207.749710 84.706238,206.040894 87.955330,204.931046 
	C111.920395,196.744797 135.921738,188.664536 159.931168,180.608994 
	C161.303284,180.148621 162.846268,180.197525 164.720459,180.459930 
	C164.816711,186.351074 164.144547,191.800919 164.284073,197.229904 
	C164.436615,203.165466 165.339798,209.081741 165.546783,215.049805 
	C145.134338,222.057373 125.090927,229.021561 105.047508,235.985748 
	C99.355545,224.219971 88.759880,217.356827 78.692627,209.488251 
z"/>
<path fill="#F991A1" opacity="1.000000" stroke="none" 
	d="
M362.128540,208.556641 
	C343.754425,215.122360 325.352112,221.345306 306.926239,227.497650 
	C300.169006,229.753876 293.355927,231.842941 285.948608,233.728195 
	C283.448120,221.015106 277.636963,215.392578 263.015808,211.486664 
	C265.988739,209.377472 268.768158,207.105347 271.952820,205.980362 
	C288.486725,200.139679 305.114380,194.563019 321.729431,188.953857 
	C329.855530,186.210510 338.025177,183.596298 346.175110,180.923645 
	C351.480408,190.011063 356.785706,199.098495 362.128540,208.556641 
z"/>
<path fill="#F997A7" opacity="1.000000" stroke="none" 
	d="
M346.030823,180.615402 
	C338.025177,183.596298 329.855530,186.210510 321.729431,188.953857 
	C305.114380,194.563019 288.486725,200.139679 271.952820,205.980362 
	C268.768158,207.105347 265.988739,209.377472 262.632751,211.418869 
	C255.421295,210.461746 248.514282,209.539551 241.809433,207.826157 
	C237.755554,206.790222 233.760483,204.932465 230.207062,202.699219 
	C226.773163,200.541153 225.664902,196.232773 227.421997,192.997162 
	C228.576431,190.871323 232.391052,189.291336 235.130173,189.096710 
	C242.732941,188.556549 250.412827,189.177475 258.031616,188.768845 
	C268.368164,188.214462 278.226898,186.230865 284.235443,175.956299 
	C295.754120,172.312546 306.901672,168.747086 317.967529,164.943939 
	C320.795258,163.972061 323.364410,162.247849 326.052338,160.869293 
	C332.663727,167.348572 339.275146,173.827866 346.030823,180.615402 
z"/>
<path fill="#F88A9A" opacity="1.000000" stroke="none" 
	d="
M97.583939,334.126160 
	C96.142761,321.867493 96.614708,309.727264 100.365959,297.379700 
	C103.143623,296.550964 105.470154,296.335999 107.624969,295.610840 
	C123.554970,290.249969 139.422913,284.703094 155.382828,279.434204 
	C158.278381,278.478271 161.506561,278.529999 164.468964,278.531342 
	C161.608246,291.295654 158.859756,303.645142 155.685028,315.996338 
	C152.361618,316.579376 149.370667,316.874847 146.582718,317.789215 
	C130.223526,323.154785 113.911720,328.664825 97.583939,334.126160 
z"/>
<path fill="#F991A1" opacity="1.000000" stroke="none" 
	d="
M164.581192,278.116516 
	C161.506561,278.529999 158.278381,278.478271 155.382828,279.434204 
	C139.422913,284.703094 123.554970,290.249969 107.624969,295.610840 
	C105.470154,296.335999 103.143623,296.550964 100.487312,297.004822 
	C101.297714,292.559967 102.461845,288.096313 103.749924,283.668762 
	C105.777016,276.700989 107.887520,269.757507 110.403412,262.396057 
	C129.899658,255.658661 148.955200,249.328903 168.062347,243.465576 
	C168.522232,255.490738 168.176010,266.971497 164.581192,278.116516 
z"/>
<path fill="#F88394" opacity="1.000000" stroke="none" 
	d="
M97.632690,334.566345 
	C113.911720,328.664825 130.223526,323.154785 146.582718,317.789215 
	C149.370667,316.874847 152.361618,316.579376 155.679016,316.403412 
	C153.922592,329.542297 151.745941,342.275787 149.185150,355.007996 
	C144.258774,356.331146 139.657196,357.482544 135.186600,359.015839 
	C125.744713,362.254181 116.371330,365.692230 106.969849,369.048370 
	C101.289474,358.406189 98.641479,346.936615 97.632690,334.566345 
z"/>
<path fill="#F997A7" opacity="1.000000" stroke="none" 
	d="
M168.010742,242.999146 
	C148.955200,249.328903 129.899658,255.658661 110.467651,261.997345 
	C110.184891,253.234131 108.777534,244.757568 105.080193,236.355637 
	C125.090927,229.021561 145.134338,222.057373 165.608887,215.476227 
	C166.696930,224.905899 167.353836,233.952515 168.010742,242.999146 
z"/>
<path fill="#F86477" opacity="1.000000" stroke="none" 
	d="
M289.403198,495.918335 
	C273.521179,498.053345 263.892426,486.670715 262.516815,476.717621 
	C261.221222,467.343262 266.609314,456.648193 275.113617,452.660553 
	C284.564209,448.229187 296.294098,450.742371 302.846741,458.602417 
	C309.335907,466.386322 309.846436,477.690979 304.360138,486.067444 
	C300.842743,491.437836 295.782379,494.238831 289.403198,495.918335 
z"/>
<path fill="#F87D8E" opacity="1.000000" stroke="none" 
	d="
M107.007477,369.406128 
	C116.371330,365.692230 125.744713,362.254181 135.186600,359.015839 
	C139.657196,357.482544 144.258774,356.331146 149.262650,355.467590 
	C149.803391,367.336304 150.909378,378.546539 155.672791,388.982361 
	C146.285706,391.807159 137.299133,394.597290 128.347794,397.496124 
	C127.695992,397.707214 127.299667,398.707123 126.784554,399.340271 
	C118.224083,390.803375 111.957954,380.735199 107.007477,369.406128 
z"/>
<path fill="#F9A5B3" opacity="1.000000" stroke="none" 
	d="
M316.934967,84.006607 
	C321.881317,99.744339 312.903595,114.359062 296.790710,116.799179 
	C286.373596,118.376732 276.024628,111.488823 271.471436,99.316208 
	C273.238190,98.104401 274.578247,97.046883 276.101776,96.528259 
	C288.064728,92.455894 300.050903,88.450050 312.065094,84.531586 
	C313.583893,84.036240 315.306702,84.166306 316.934967,84.006607 
z"/>
<path fill="#F99DAC" opacity="1.000000" stroke="none" 
	d="
M325.879150,160.587845 
	C323.364410,162.247849 320.795258,163.972061 317.967529,164.943939 
	C306.901672,168.747086 295.754120,172.312546 284.286133,175.556137 
	C284.504089,171.239456 285.683685,167.307434 285.521515,163.431549 
	C285.114624,153.706116 278.049500,149.702377 270.016998,146.828232 
	C270.949738,145.746201 271.673767,144.217926 272.854340,143.665848 
	C276.388214,142.013321 280.100647,140.742676 283.954559,138.997498 
	C298.380127,145.177597 313.502625,149.939468 325.879150,160.587845 
z"/>
<path fill="#F9ABB9" opacity="1.000000" stroke="none" 
	d="
M316.915558,83.653320 
	C315.306702,84.166306 313.583893,84.036240 312.065094,84.531586 
	C300.050903,88.450050 288.064728,92.455894 276.101776,96.528259 
	C274.578247,97.046883 273.238190,98.104401 271.463104,98.957947 
	C267.092682,87.809555 273.772034,75.738121 282.615265,71.125290 
	C293.643616,65.372665 306.900177,68.092743 313.756134,77.690750 
	C314.994110,79.423859 315.859009,81.423470 316.915558,83.653320 
z"/>
<path fill="#F87688" opacity="1.000000" stroke="none" 
	d="
M126.894333,399.646545 
	C127.299667,398.707123 127.695992,397.707214 128.347794,397.496124 
	C137.299133,394.597290 146.285706,391.807159 155.952576,389.162598 
	C159.559204,394.168610 163.987320,397.259521 168.993652,399.446564 
	C172.893463,401.150208 177.027908,402.316803 181.058075,403.722076 
	C180.193939,404.501190 179.458679,405.638336 178.445404,406.003082 
	C170.056763,409.022552 161.601028,411.855347 153.207016,414.860382 
	C151.746384,415.383270 150.480560,416.450256 149.068329,417.618347 
	C141.675964,411.964752 134.340042,405.958801 126.894333,399.646545 
z"/>
<path fill="#F991A1" opacity="1.000000" stroke="none" 
	d="
M413.430908,201.957825 
	C410.783905,209.052368 405.244354,211.677460 398.805420,211.707443 
	C393.368988,211.732773 389.185028,208.527100 386.714172,203.460449 
	C384.034271,197.965225 384.721893,192.295883 388.680725,187.680435 
	C392.609589,183.099899 398.567261,181.476471 404.545837,183.426895 
	C410.453583,185.354172 413.278412,189.777267 413.961639,195.667862 
	C414.186035,197.602615 413.741516,199.614960 413.430908,201.957825 
z"/>
<path fill="#FFFFFF" opacity="1.000000" stroke="none" 
	d="
M181.471039,403.761658 
	C177.027908,402.316803 172.893463,401.150208 168.993652,399.446564 
	C163.987320,397.259521 159.559204,394.168610 156.361755,389.154602 
	C150.909378,378.546539 149.803391,367.336304 149.646790,355.468872 
	C151.745941,342.275787 153.922592,329.542297 156.105255,316.401733 
	C158.859756,303.645142 161.608246,291.295654 164.468964,278.531342 
	C168.176010,266.971497 168.522232,255.490738 168.062347,243.465576 
	C167.353836,233.952515 166.696930,224.905899 165.977921,215.432846 
	C165.339798,209.081741 164.436615,203.165466 164.284073,197.229904 
	C164.144547,191.800919 164.816711,186.351074 165.140762,180.466507 
	C167.259323,172.742645 168.792786,165.223999 174.140945,159.338821 
	C181.857635,150.847336 192.084351,147.242706 202.906204,146.165161 
	C216.734528,144.788254 230.691147,144.282455 244.595032,144.240280 
	C252.808350,144.215378 261.026581,145.812195 269.629822,146.753967 
	C278.049500,149.702377 285.114624,153.706116 285.521515,163.431549 
	C285.683685,167.307434 284.504089,171.239456 283.884644,175.546082 
	C278.226898,186.230865 268.368164,188.214462 258.031616,188.768845 
	C250.412827,189.177475 242.732941,188.556549 235.130173,189.096710 
	C232.391052,189.291336 228.576431,190.871323 227.421997,192.997162 
	C225.664902,196.232773 226.773163,200.541153 230.207062,202.699219 
	C233.760483,204.932465 237.755554,206.790222 241.809433,207.826157 
	C248.514282,209.539551 255.421295,210.461746 262.626160,211.785126 
	C277.636963,215.392578 283.448120,221.015106 285.543274,233.744049 
	C286.225311,248.801514 280.488007,256.642975 266.034607,259.324524 
	C258.749390,260.676147 251.178040,260.472717 243.738953,261.012207 
	C238.945755,261.359833 234.081528,261.375732 229.385513,262.262543 
	C222.437927,263.574493 220.036469,267.780884 222.872116,274.318665 
	C225.497711,280.372131 229.150040,285.980255 232.633606,291.979736 
	C238.077118,300.354767 243.237213,308.534576 248.669739,316.923248 
	C253.036270,327.056671 257.130371,336.981201 261.416077,347.251587 
	C262.013214,355.083160 262.418701,362.568817 262.843750,370.520630 
	C260.992737,378.280548 258.791290,385.417572 253.379074,391.036438 
	C245.691147,399.017792 236.045395,403.511475 225.308884,404.679016 
	C214.472336,405.857391 203.482910,405.826202 192.558121,405.884338 
	C189.003860,405.903229 185.442245,404.535065 181.471039,403.761658 
z"/>
</svg>